<?xml version="1.0" encoding="UTF-8" standalone="no"?>
<svg
   height="24"
   width="24"
   viewBox="0 0 24 24"
   version="1.1"
   id="svg1"
   sodipodi:docname="icon-waterfall.svg"
   inkscape:version="1.3.2 (091e20e, 2023-11-25, custom)"
   xmlns:inkscape="http://www.inkscape.org/namespaces/inkscape"
   xmlns:sodipodi="http://sodipodi.sourceforge.net/DTD/sodipodi-0.dtd"
   xmlns="http://www.w3.org/2000/svg"
   xmlns:svg="http://www.w3.org/2000/svg">
  <defs
     id="defs1">
    <inkscape:path-effect
       effect="spiro"
       id="path-effect18"
       is_visible="true"
       lpeversion="1" />
    <inkscape:path-effect
       effect="spiro"
       id="path-effect17"
       is_visible="true"
       lpeversion="1" />
    <inkscape:path-effect
       effect="spiro"
       id="path-effect16"
       is_visible="true"
       lpeversion="1" />
    <inkscape:path-effect
       effect="spiro"
       id="path-effect15"
       is_visible="true"
       lpeversion="1" />
    <inkscape:path-effect
       effect="spiro"
       id="path-effect14"
       is_visible="true"
       lpeversion="1" />
    <inkscape:path-effect
       effect="spiro"
       id="path-effect13"
       is_visible="true"
       lpeversion="1" />
    <inkscape:path-effect
       effect="spiro"
       id="path-effect12"
       is_visible="true"
       lpeversion="1" />
    <inkscape:path-effect
       effect="spiro"
       id="path-effect11"
       is_visible="true"
       lpeversion="1" />
    <inkscape:path-effect
       effect="spiro"
       id="path-effect10"
       is_visible="true"
       lpeversion="1" />
    <inkscape:path-effect
       effect="spiro"
       id="path-effect9"
       is_visible="true"
       lpeversion="1" />
    <inkscape:path-effect
       effect="spiro"
       id="path-effect8"
       is_visible="true"
       lpeversion="1" />
    <inkscape:path-effect
       effect="spiro"
       id="path-effect7"
       is_visible="true"
       lpeversion="1" />
    <inkscape:path-effect
       effect="spiro"
       id="path-effect6"
       is_visible="true"
       lpeversion="1" />
    <inkscape:path-effect
       effect="spiro"
       id="path-effect5"
       is_visible="true"
       lpeversion="1" />
  </defs>
  <sodipodi:namedview
     id="namedview1"
     pagecolor="#ffffff"
     bordercolor="#000000"
     borderopacity="0.25"
     inkscape:showpageshadow="2"
     inkscape:pageopacity="0.0"
     inkscape:pagecheckerboard="0"
     inkscape:deskcolor="#d1d1d1"
     inkscape:zoom="18.958543"
     inkscape:cx="56.62355"
     inkscape:cy="20.017361"
     inkscape:window-width="3440"
     inkscape:window-height="1369"
     inkscape:window-x="-8"
     inkscape:window-y="-8"
     inkscape:window-maximized="1"
     inkscape:current-layer="svg1" />
  <path
     style="display:inline;fill:#4682b4;fill-opacity:1;stroke:#4682b4;stroke-width:0.168203;stroke-opacity:1"
     d="m 6.2414283,-0.05274667 c -0.5246743,0 -0.9467864,0.44335398 -0.9467864,0.99390063 L 5.0638394,13.956427 l -0.1374228,10.1545 14.1058024,-0.0157 0.07259,-23.15407404 c 0.0017,-0.55078567 -0.422486,-0.99390063 -0.947162,-0.99390063 h -2.665154 z"
     id="path12"
     sodipodi:nodetypes="sscccsscs" />
  <path
     style="fill:#4ffdff;fill-opacity:1;stroke:#f8f8f8;stroke-width:0.120987;stroke-dasharray:none;stroke-opacity:1"
     d="m 6.6851852,0.45682218 c 0.094384,0 0.1703049,0.3907457 0.1703049,0.87624352 V 15.088121 c 0,0.485501 -0.075991,0.876247 -0.1703049,0.876247 -0.094384,0 -0.1703042,-0.390746 -0.1703042,-0.876247 V 1.3332791 C 6.5148111,0.84778128 6.5908019,0.45682218 6.6851852,0.45682218 Z"
     id="path23" />
  <path
     style="fill:#4ffdff;fill-opacity:1;stroke:#f8f8f8;stroke-width:0.116569;stroke-dasharray:none;stroke-opacity:1"
     d="m 9.4644653,0.73373573 c 0.080991,0 0.1461398,0.30104107 0.1461398,0.67480397 V 12.001092 c 0,0.373761 -0.065208,0.674804 -0.1461398,0.674804 -0.080992,0 -0.1461405,-0.301043 -0.1461405,-0.674804 V 1.4085397 c 0,-0.3737629 0.065148,-0.67480397 0.1461405,-0.67480397 z"
     id="path24" />
  <path
     style="fill:#4ffdff;fill-opacity:1;stroke:#f8f8f8;stroke-width:0.0822624;stroke-dasharray:none;stroke-opacity:1"
     d="m 11.174285,7.9374726 c 0.06127,0 0.110546,0.198193 0.110546,0.444264 v 6.9737024 c 0,0.246069 -0.04933,0.444263 -0.110546,0.444263 -0.06127,0 -0.110546,-0.198194 -0.110546,-0.444263 V 8.3817366 c 0,-0.246071 0.04928,-0.444264 0.110546,-0.444264 z"
     id="path25" />
  <path
     style="fill:#4ffdff;fill-opacity:1;stroke:#f8f8f8;stroke-width:0.11595;stroke-dasharray:none;stroke-opacity:1"
     d="m 12.834576,8.9948669 c 0.09578,0 0.172824,0.3536597 0.172824,0.7930791 v 12.449369 c 0,0.439415 -0.07712,0.793076 -0.172824,0.793076 -0.09578,0 -0.172823,-0.353661 -0.172823,-0.793076 V 9.787946 c 0,-0.4392263 0.07705,-0.7930791 0.172823,-0.7930791 z"
     id="path26" />
  <path
     style="fill:#4ffdff;fill-opacity:1;stroke:#f8f8f8;stroke-width:0.0902788;stroke-dasharray:none;stroke-opacity:1"
     d="m 10.147659,14.863715 c 0.07366,0 0.132912,0.154994 0.132912,0.347594 v 5.456722 c 0,0.1926 -0.05931,0.34759 -0.132912,0.34759 -0.07366,0 -0.132911,-0.15499 -0.132911,-0.34759 v -5.456722 c 0,-0.1926 0.05925,-0.347594 0.132911,-0.347594 z"
     id="path28" />
  <path
     style="fill:#4ffdff;fill-opacity:1;stroke:#f8f8f8;stroke-width:0.132095;stroke-dasharray:none;stroke-opacity:1"
     d="m 7.8284844,9.5552214 c 0.076688,0 0.1383761,0.3187211 0.1383761,0.7147746 v 11.221118 c 0,0.396057 -0.061744,0.714784 -0.1383761,0.714784 -0.076633,0 -0.1383768,-0.318727 -0.1383768,-0.714784 V 10.269996 c 0,-0.3957385 0.061744,-0.7147746 0.1383768,-0.7147746 z"
     id="path29" />
  <path
     style="fill:#4ffdff;fill-opacity:1;stroke:#f8f8f8;stroke-width:0.101088;stroke-dasharray:none;stroke-opacity:1"
     d="m 12.157708,0.88494946 c 0.07066,0 0.127508,0.20256154 0.127508,0.45427124 v 7.1314367 c 0,0.2517091 -0.0569,0.4542709 -0.127508,0.4542709 -0.07066,0 -0.127509,-0.2025618 -0.127509,-0.4542709 V 1.3392207 c -5.3e-5,-0.2517097 0.05684,-0.45427124 0.127509,-0.45427124 z"
     id="path30" />
  <path
     style="fill:#4ffdff;fill-opacity:1;stroke:#f8f8f8;stroke-width:0.135856;stroke-dasharray:none;stroke-opacity:1"
     d="m 14.421441,2.6429737 c 0.06103,0 0.110124,0.4236141 0.110124,0.9500115 V 18.506867 c 0,0.526396 -0.04914,0.950011 -0.110124,0.950011 -0.06103,0 -0.110125,-0.423615 -0.110125,-0.950011 V 3.5929852 c -4.6e-5,-0.5263974 0.04909,-0.9500115 0.110125,-0.9500115 z"
     id="path18" />
  <path
     style="fill:#4ffdff;fill-opacity:1;stroke:#f8f8f8;stroke-width:0.0714217;stroke-dasharray:none;stroke-opacity:1"
     d="m 15.420392,18.270399 c 0.07889,0 0.14234,0.116028 0.14234,0.260085 v 4.082607 c 0,0.144056 -0.06352,0.260084 -0.14234,0.260084 -0.07889,0 -0.142339,-0.116028 -0.142339,-0.260084 v -4.082607 c 0,-0.144057 0.06345,-0.260085 0.142339,-0.260085 z"
     id="path19" />
  <path
     style="fill:#4ffdff;fill-opacity:1;stroke:#f8f8f8;stroke-width:0.0714217;stroke-dasharray:none;stroke-opacity:1"
     d="m 13.521512,0.54751802 c 0.07889,0 0.14234,0.116028 0.14234,0.260085 V 4.89021 c 0,0.144056 -0.06352,0.260084 -0.14234,0.260084 -0.07889,0 -0.142339,-0.116028 -0.142339,-0.260084 V 0.80760302 c 0,-0.144057 0.06345,-0.260085 0.142339,-0.260085 z"
     id="path20" />
  <path
     style="fill:#4ffdff;fill-opacity:1;stroke:#f8f8f8;stroke-width:0.120987;stroke-dasharray:none;stroke-opacity:1"
     d="m 17.023532,5.4677558 c 0.09438,0 0.170305,0.3907457 0.170305,0.8762435 V 20.099055 c 0,0.485501 -0.07599,0.876247 -0.170305,0.876247 -0.09438,0 -0.170304,-0.390746 -0.170304,-0.876247 V 6.3442127 c -7e-5,-0.4854978 0.07592,-0.8764569 0.170304,-0.8764569 z"
     id="path21" />
  <path
     style="fill:#4ffdff;fill-opacity:1;stroke:#f8f8f8;stroke-width:0.095588;stroke-dasharray:none;stroke-opacity:1"
     d="m 15.789619,1.8255212 c 0.07219,0 0.130257,0.2271096 0.130257,0.5090823 v 7.9911675 c 0,0.28197 -0.05813,0.50908 -0.130257,0.50908 -0.07219,0 -0.130256,-0.22711 -0.130256,-0.50908 V 2.3346035 c 0,-0.2819727 0.05806,-0.5090823 0.130256,-0.5090823 z"
     id="path22" />
  <path
     style="fill:#4ffdff;fill-opacity:1;stroke:#f8f8f8;stroke-width:0.0714217;stroke-dasharray:none;stroke-opacity:1"
     d="m 18.110472,0.75850469 c 0.07889,0 0.14234,0.116028 0.14234,0.26008501 v 4.082607 c 0,0.144056 -0.06352,0.260084 -0.14234,0.260084 -0.07889,0 -0.142339,-0.116028 -0.142339,-0.260084 v -4.082607 c 0,-0.14405701 0.06345,-0.26008501 0.142339,-0.26008501 z"
     id="path27" />
  <path
     id="path31"
     style="fill:#ffffff;fill-opacity:1;stroke:none;stroke-width:0.391232;stroke-dasharray:none;stroke-opacity:1"
     d="m 17.170596,20.542513 c 0.0097,0.05343 0.140853,0.544569 0.451382,1.829159 -0.0446,-0.04491 -0.102042,-0.06704 -0.135216,-0.133758 -0.130114,-0.261791 -0.14448,-0.87525 -0.347981,-0.836808 -0.01084,0.0021 0.529472,2.117349 0.0079,1.004793 -0.220835,-0.471086 -0.410909,-0.978601 -0.616425,-1.468305 0.04163,0.272903 0.101209,0.539509 0.125274,0.818145 0.01074,0.124424 0.02656,0.279585 -0.02187,0.376408 -0.03095,0.06188 -0.09743,-0.01979 -0.143171,-0.04667 -0.05105,-0.02999 -0.118031,-0.198907 -0.145158,-0.121319 -0.04698,0.134395 0.0113,0.375369 0.06761,0.553725 -0.07706,-0.191419 -0.21932,-0.525374 -0.469278,-1.082563 0.04796,0.323844 0.290803,0.743312 0.145157,0.973685 -0.126233,0.199672 -0.214784,-0.467588 -0.355935,-0.637718 -0.03847,-0.04638 -0.122918,-0.0323 -0.141181,0.04044 -0.03666,0.14599 0.03365,0.318887 0.01193,0.472844 -0.0076,0.05359 -0.06006,0.100264 -0.08948,0.07465 -0.08368,-0.07281 -0.133311,-0.220242 -0.200835,-0.329746 0.2114,1.277329 0.166398,0.57716 -0.163054,0.220868 -0.03569,-0.03858 -0.08937,0.01636 -0.123286,0.0591 -0.04056,0.05105 -0.04504,0.251957 -0.0875,0.205313 -0.181996,-0.199964 -0.229106,-0.742736 -0.445416,-0.793258 -0.143482,-0.03351 0.0517,0.473298 0.07755,0.709267 0.126519,1.176744 0.08762,0.243591 -0.552793,-0.49773 -0.08897,-0.102987 0.103889,0.31738 0.137204,0.488397 0.0105,0.05388 0.01843,0.207111 -0.0079,0.171096 -0.438101,-0.597877 -0.607383,-1.416757 -0.174985,0.09954 0.03696,0.129122 0.127347,0.280301 0.188904,0.419958 h -0.236627 c -0.233165,-0.314015 -0.535592,-0.738453 -0.538875,-0.740372 -0.08333,-0.04874 0.09414,0.25076 0.123286,0.388851 0.0231,0.109468 0.0045,0.230798 -0.006,0.351521 h -0.165044 c -0.198126,-0.319133 -0.458306,-0.7265 -0.522965,-0.724819 -0.09224,0.0024 0.04325,0.476467 -0.04773,0.451068 -0.16392,-0.04577 -0.323316,-0.832967 -0.363889,-0.566167 -0.03826,0.251558 0.0151,0.567734 0.08153,0.839918 H 12.38233 c -0.04995,-0.106714 -0.05103,-0.112989 -0.123285,-0.264418 -0.689407,-1.79632 0.0253,-0.06163 -0.07357,0.264418 h -0.06161 c -0.04768,-0.171722 -0.08367,-0.701605 -0.202824,-0.815032 -0.108912,-0.103676 0.166174,0.693946 0.04971,0.615939 -0.740057,-0.495663 -0.01249,-0.985594 -0.403659,-0.678156 -0.260814,0.08124 -0.115083,0.105085 -0.405646,-0.283083 -0.0742,-0.0076 -0.07249,0.226364 -0.135216,0.292416 -0.04735,0.04985 -0.128409,-0.04246 -0.167032,0.02488 -0.228601,0.398646 0.238161,1.142453 -0.373831,-0.388851 -0.07738,-0.172444 -0.118526,-0.618721 -0.232651,-0.516395 -0.124673,0.111779 0.05463,0.473268 0.02585,0.703044 -0.01008,0.08037 -0.0853,0.15938 -0.12925,0.121318 -0.124129,-0.107494 -0.1590394,-0.538189 -0.2962735,-0.491507 -0.5545527,0.188636 0.5309305,1.243332 -0.2962812,0.298638 -0.3736001,0.04003 0.085942,0.05552 -0.4573471,-0.647049 -0.035102,-0.04539 -0.1212408,0.03581 -0.1153311,0.108879 0.038235,0.472762 0.5241242,1.408492 0.2366275,1.37498 -0.3492465,-0.04072 -0.4043761,-0.945431 -0.6064821,-1.418532 -0.050011,0.01163 -0.101112,0.02264 -0.1511234,0.03421 0.2451416,1.706641 0.1717877,0.603213 -0.1252733,0.382629 -0.051587,-0.0383 0.016563,0.19279 -0.00398,0.279974 -0.010292,0.04368 -0.073534,0.01577 -0.07755,0.06221 -0.014584,0.168559 0.1031368,0.626211 0.027839,0.510173 -0.2537276,-0.391012 -0.402822,-0.933154 -0.6044937,-1.399866 -0.014514,0.199078 -0.052787,0.397313 -0.043747,0.597276 0.016785,0.371298 0.2727792,0.970196 0.2207198,1.231882 H 7.5325021 C 7.3630282,22.868087 7.2466738,22.3337 7.067201,22.082366 6.8820357,21.823059 6.705349,21.357075 6.4646958,21.40732 6.2905241,21.44368 6.4761668,22.149277 6.3095955,22.241017 6.1188844,22.346059 5.9518559,21.940773 5.7727098,21.789949 5.6779348,21.848002 5.571207,21.86837 5.4883591,21.964154 5.4078611,22.057222 5.3976081,22.341972 5.2994548,22.337452 5.1400492,22.33014 5.017849,22.084279 4.8858539,21.936157 4.735556,21.767496 4.5299364,21.115391 4.4543568,21.388654 c -0.3301326,1.193608 0.601628,1.451184 0.059654,1.253659 l 0.1451581,0.469731 H 4.4861723 V 24.12617 H 19.198832 v 1.07012 c 0.03193,0.04857 0.02602,-0.0028 0,-0.102648 v -1.981589 h -0.417579 l -0.377808,-1.088784 c 0.08548,0.283806 0.190205,0.554845 0.256512,0.852362 0.01018,0.04567 -0.06129,-0.02405 -0.07954,-0.06221 -0.10555,-0.220624 -0.120736,-0.776543 -0.284351,-0.699932 -0.155727,0.07291 0.103627,0.508214 0.155101,0.762149 -0.122815,-0.30214 -0.229594,-0.625103 -0.367867,-0.908358 -0.03782,-0.07749 -0.09671,-0.123868 -0.153112,-0.158653 -0.0365,-0.02251 -0.106097,-0.06796 -0.117319,-0.0063 -0.02881,0.158574 0.0929,0.6204 0.02783,0.49462 -0.368764,-0.712675 -0.686187,-1.843574 -0.670113,-1.754499 z"
     sodipodi:nodetypes="scccccsscsccssccccccsscsscccccsccscscccccscccsscsccscsssccsssscsccssscscssccccccccccscscssccs" />
</svg>
