<svg xmlns="http://www.w3.org/2000/svg" width="680" height="480" viewBox="0 0 680 480"><path d="M344.769 54.024a45.975 46.598 0 0 1-45.976 46.598 45.975 46.598 0 0 1-45.975-46.598 45.975 46.598 0 0 1 45.975-46.599 45.975 46.598 0 0 1 45.976 46.599m-80.457 69.897c-25.517 0-45.976 20.736-45.976 46.598v139.795h45.976v163.093h82.985a160.914 163.094 0 0 1-48.504-116.495 160.914 163.094 0 0 1 80.457-140.96V170.52c0-25.862-20.459-46.598-45.975-46.598m114.938 23.299v186.393h126.433l62.067 83.877 36.78-27.96-75.86-102.515H494.19V147.22m-68.963 98.555a114.939 116.496 0 0 0-80.457 111.137 114.939 116.496 0 0 0 114.938 116.495 114.939 116.496 0 0 0 114.939-116.495H528.67a68.963 69.897 0 0 1-68.963 69.897 68.963 69.897 0 0 1-68.963-69.897 68.963 69.897 0 0 1 34.482-60.345zM78.001 472.462V335.813H8l60.434-172.86c5.834-18.675 23.567-32.112 44.568-32.112s38.734 13.437 44.567 32.112l60.435 172.86h-70.002v136.649Zm35.001-455.495a46.667 45.55 0 0 1 46.667 45.55 46.667 45.55 0 0 1-46.667 45.549 46.667 45.55 0 0 1-46.668-45.55 46.667 45.55 0 0 1 46.668-45.55" style="fill:#fff"/></svg>