<svg xmlns="http://www.w3.org/2000/svg" width="580" height="580" viewBox="0 0 580 580"><path fill="param(fill)" fill-opacity="param(fill-opacity)" stroke="param(outline)" stroke-opacity="param(outline-opacity)" stroke-width="param(outline-width)" d="M195.026 348.627c-.995 1.127-1.659 2.587-1.659 4.18 0 2.123 1.194 3.98 2.853 5.041l90.028 42.99c3.914 1.925 5.573 4.445 5.573 8.095 0 4.843-4.047 8.823-8.824 8.823l-99.647-.133a3.4 3.4 0 0 0-3.384 3.384c0 .929.266 1.725.929 2.322 101.041 81.27 233.13 105.353 359.446 103.495V253.756c-235.584-2.123-345.315 94.871-345.315 94.871zm134.079 24.547c-11.743 0-21.363-9.554-21.363-21.297s9.62-21.296 21.363-21.296 21.229 9.554 21.229 21.296c.001 11.743-9.42 21.297-21.229 21.297zM541.138 48.822c-20.301-4.246-33.57-5.771-48.895-5.573-78.085.863-154.446 34.167-240.095 104.424-3.184-.862-10.217-2.786-10.217-2.786-13.6 0-24.679 11.013-24.679 24.613 0 0 .995 4.578 1.525 7.43-2.653 2.455-69.195 64.95-69.195 64.95l-58.847 55.463c-5.506 5.042-12.671 7.563-20.168 7.23-7.431-.331-14.264-3.582-19.24-9.088-4.843-5.374-7.165-12.075-7.165-18.775 0-7.563 3.052-15.126 9.023-20.633 0 0 4.445-2.455 7.828-4.379.73 5.042 2.787 20.434 2.787 20.434l48.032-61.168L58.89 229.01c-13.932 4.776-19.704 11.809-19.903 12.141-19.372 17.581-20.898 48.364-2.985 68.201 18.045 19.902 48.829 21.296 68.731 3.316l.531-.662 55.794-53.142s68.931-65.148 71.12-67.338c3.317.862 9.819 2.521 9.819 2.521 13.534 0 24.547-11.08 24.547-24.68 0 0-.663-3.583-1.127-6.17 82.862-68.134 155.309-100.51 227.888-101.306 14.928-.133 26.869 1.791 46.44 5.971l4.047.863V49.353z"/></svg>