<svg xmlns="http://www.w3.org/2000/svg" width="548.8" height="248.619" viewBox="0 0 548.8 248.619"><path d="M512.458 146.055c5.792-17.292 11.727-38.408 19.514-55.05 4.449-7.631 5.267-15.36 1.68-15.442-.594-.014-3.096.885-5.66 2.038a2318 2318 0 0 1-14.709 6.544c-5.465 2.405-12.12 6.165-14.797 8.439-15.954 10.183-33.235 15.122-52.644 14.322-21.694-4.231-49.804-7.548-71.48-21.956-33.317-17.444-36.186-18.81-50.021-23.564-7.522-2.586-13.979-5.029-14.326-5.396s1.532-2.562 4.156-4.908 4.557-5.48 4.274-6.917-8.23-5.377-17.628-8.869c-10.949-4.068-21.363-10.173-29.004-16.934-6.15-5.44-12.51-9.484-14.71-9.414a1.1 1.1 0 0 0-.382.086c-1.735.668-10.954 10.584-20.486 22.071l-17.362 20.867-12.557.918c-57.431 6.776-104.25 29.686-147.352 66.531-8.935 9.196-42.606 39.729-40.53 47.129.714.74 8.72-.19 17.539.918 16.528 2.078 41.856 5.224 41.709 8.582-.077 1.744-14.289 3.418-40.265 6.63-22.27 2.756-22.067 7.32.649 15.127 27.19 9.346 62.93 15.173 120.705 11.079.659.007 1.312-.001 1.968-.001 14.932 14.149 34.2 27.144 49.226 28.093 39.44 2.492 27.138-16.282 25.458-40.113 14.93-3.971 29.809-8.271 44.997-11.802 2.84-.14 11.192-2.45 18.511-5.195 44.095-12.271 80.357-24.316 116.432-20.693 33.331 1.662 55.528 23.712 81.826 39.608 1.086.025 7.793 4.248 14.856 9.386 19.22 13.98 24.104 11.997 16.566-6.66-6.191-15.326-16.368-50.238-16.153-55.454z" style="fill:#d8d137;fill-opacity:1;stroke:#000;stroke-width:3mm;stroke-dasharray:none;stroke-opacity:1"/><path d="M67.463 151.363a9.216 9.216 0 0 1-9.219-9.219 9.216 9.216 0 0 1 9.219-9.219 9.216 9.216 0 0 1 9.219 9.219 9.216 9.216 0 0 1-9.219 9.219z" style="fill:#fbf3e5;fill-opacity:1;stroke:#000;stroke-width:1mm;stroke-dasharray:none;stroke-opacity:1"/></svg>