<svg xmlns="http://www.w3.org/2000/svg" viewBox="0 0 48 34"><path d="M46.439 30.012c-4.402-1.804-9.915-3.235-15.06-3.902l7.21-16.346 2.551-.92 2.592-5.882L37.497.2l-2.53 5.782.975 2.588-3.292 7.251-5.476 2.941-4.869-2.489a.986.996 0 0 0-.508-.275c-1.794-.647-3.838.51-4.365 2.294l-2.67 8.193c-1.051-.452-11.455 3.056-12.108 3.351l-1.784.687c2.592 1.115 4.288 1.802 7.676 2.764 1.579-.49 2.923-1.55 4.013-2.764 2.924 3.823 8.768 3.823 11.69 0 2.923 3.823 8.768 3.823 11.69 0 1.091 1.214 2.435 2.274 4.014 2.764l5.63-1.902 2.046-.862-1.188-.51m-18.179-4.175c-1.928-.157-3.895-.157-5.844-.157l1.383-4.253 3.371 1.842 2.923-1.667-1.833 4.235m-.116-14.859a3.897 3.897 0 0 1-3.897 3.92 3.875 3.914 0 0 1-3.895-3.922c0-2.174 1.754-3.918 3.895-3.918 2.144 0 3.897 1.764 3.897 3.92z" style="fill:#d3813a;fill-opacity:1;stroke:#fff;stroke-width:.390832;stroke-dasharray:none;stroke-opacity:1"/></svg>