<svg xmlns="http://www.w3.org/2000/svg" width="36mm" height="16mm" viewBox="0 0 36 16"><path d="m79.904 58.688-5.292-5.82 5.292-4.234 7.938-1.058h7.937l7.938 1.058 5.291 4.233-5.291 5.821a60.1 60.1 0 0 0-23.813 0z" style="opacity:.985401;fill:#93630c;fill-opacity:1;stroke:#fff;stroke-width:.211667" transform="translate(-73.883 -44.222)"/><g style="fill:#585142;fill-opacity:.390042;stroke:#513a0a;stroke-width:.4;stroke-dasharray:none;stroke-opacity:1"><path d="m74.083 49.742 5.292 5.82v2.646l-5.292-5.82z" style="display:inline;opacity:.985401;fill:#585142;fill-opacity:.390042;stroke:#513a0a;stroke-width:.4;stroke-dasharray:none;stroke-opacity:1" transform="translate(-73.354 -43.692)"/><path d="m74.083 52.388 5.292-4.234v-2.646l-5.292 4.234m5.292-4.234v2.646l7.937-1.058V44.45zm7.937-1.058v2.646h7.938V44.45zm7.938 0v2.646l7.938 1.058v-2.646zm7.938 1.058v2.646l5.291 4.234v-2.646z" style="display:inline;opacity:.985401;fill:#585142;fill-opacity:.390042;stroke:#513a0a;stroke-width:.4;stroke-dasharray:none;stroke-opacity:1" transform="translate(-73.354 -43.692)"/><path d="m103.188 58.208 5.291-5.82v-2.646l-5.292 5.82z" style="display:inline;opacity:.985401;fill:#585142;fill-opacity:.390042;stroke:#513a0a;stroke-width:.4;stroke-dasharray:none;stroke-opacity:1" transform="translate(-73.354 -43.692)"/></g></svg>