<svg xmlns="http://www.w3.org/2000/svg" width="36" height="12" viewBox="0 0 36 12"><path d="m7.092 2.046-.07 5.881c2.49 1.568 7.22 2.516 10.996 2.516s8.495-.939 10.984-2.506l.07-5.883c-2.49 1.568-7.208 2.506-10.984 2.506S9.582 3.614 7.092 2.046z" style="fill:#b28f12;fill-opacity:.79668051;stroke:#000;stroke-width:.12;stroke-dasharray:none;stroke-opacity:1"/><path d="M5.588.788v7l-5 2.543 1 1.457 4-2v2h1.5v-2c6.595 2.616 15.259 2.718 22 0v2h1.5v-2l5 2-1-2.225-3.955-1.765-.045-7.01h-1.5l-.02 7.01c-2.49 1.568-7.208 2.506-10.984 2.506S9.578 9.356 7.088 7.788v-7Z" style="fill:#6e4500;fill-opacity:1;stroke:#000;stroke-width:.119861"/></svg>