<svg xmlns="http://www.w3.org/2000/svg" width="85.556" height="89.307" viewBox="0 0 22.637 23.629"><defs><filter id="a" width="1.013" height="1.01" x="-.007" y="-.005" style="color-interpolation-filters:sRGB"><feGaussianBlur stdDeviation=".035"/></filter></defs><path d="M82.55 68.397V58.85l-11.312.045v-5.45H82.55v-4.763H76.2V44.98h17.463v3.704h-6.35v19.714z" style="opacity:1;fill:#93630c;fill-opacity:1;stroke:none;stroke-width:.21166667;stroke-dasharray:none" transform="translate(-71.132 -44.873)"/><path d="M82.632 63.548h4.6v.572h-4.6zm0-5.292h4.6v.572h-4.6zm0-4.762h4.6v.572h-4.6zm0-5.292h4.6v.572h-4.6z" style="opacity:1;fill:#888;fill-opacity:1;stroke:none;stroke-width:.393117;stroke-dasharray:none;stroke-opacity:1" transform="translate(-71.132 -44.873)"/><path d="M-58.753 81.999h5.2v.572h-5.2zm0-5.82h5.2v.572h-5.2z" style="display:inline;opacity:1;fill:#888;fill-opacity:1;stroke:none;stroke-width:.395721;stroke-dasharray:none;stroke-opacity:1" transform="rotate(-90 -58.002 13.13)"/><path d="M82.632 68.31h4.6v.572h-4.6z" style="display:inline;opacity:1;fill:#888;fill-opacity:1;stroke:none;stroke-width:.393117;stroke-dasharray:none;stroke-opacity:1" transform="translate(-71.132 -44.873)"/><path d="M75.896 45.04v3.646h6.3v4.887h.471V48.17l-6.3.045v-2.704h16.906v2.704h-6.35v20.381h.471v-19.91h6.269V45.04zm6.3 13.713h.471v9.843h-.47z" style="opacity:.74452555;fill:#d2b806;fill-opacity:1;stroke:#573f09;stroke-width:.06614583;stroke-dasharray:none;stroke-opacity:1;filter:url(#a)" transform="translate(-71.132 -44.873)"/></svg>