<svg xmlns="http://www.w3.org/2000/svg" xml:space="preserve" width="700" height="520" viewBox="0 0 185.208 137.583"><defs><filter id="b" width="1.49" height="1.233" x="-.245" y="-.116" style="color-interpolation-filters:sRGB"><feGaussianBlur stdDeviation=".132"/></filter><filter id="c" width="1.045" height="1.036" x="-.022" y="-.018" style="color-interpolation-filters:sRGB"><feGaussianBlur stdDeviation=".724"/></filter><filter id="a" width="1.09" height="1.097" x="-.045" y="-.049" style="color-interpolation-filters:sRGB"><feGaussianBlur stdDeviation="1.976"/></filter></defs><g style="display:inline"><path d="M65.262 136.577c-10.69-1.239-22.037-1.567-31.75-6.678-2.456-2.471-.431-5.788 2.95-5.765 7.69-1.797-7.793-2.53-9.935-3.954-3.295-.205-10.425-3.62-5.965-7.068 5.943-2.953-.99-7.098-4.957-7.402-4.308-1.858-11.745-2.387-13.313-7.288 2.311-5.641 11.648-4.115 16.757-5.196 9.127 2.45 11.592-6.224 15.615-12.292 14.48-22.83 29.57-45.265 44.633-67.712 3.137 1.814 6.998 3.008 9.7 5.196 4.816.526 10.379-.669 15.42-.023 2.387.86 5.72.317 7.478 2.111l46.817 71.558c3.573 1.606 11.838.277 16.532 2.796 7.768.593 12.273 11.121 2.647 13.017-10.747 3.92-22.908 2.915-33.196 8.13-2.884 2.852 6.738 4.923.7 8.228-7.846 3.696-16.995 2.397-25.447 3.045-5.881.081-11.784-.012-17.459 1.771-3.51 1.279-9.723.331-9.174 5.126-7.194 4.225-16.18 2.69-24.182 2.676a179 179 0 0 1-3.87-.276" style="display:inline;fill:#4dd3ee;fill-opacity:1;stroke:none;stroke-width:1.00013;stroke-dasharray:none"/></g><g style="display:inline"><path d="M69.33 87.572c-1.092 1.84-1.04 4.26-1.822 6.295-.67 2.458 1.752-.962 1.431-2.02.1-1.38.731-2.987.391-4.275m17.033-3.115c-1.705 2.138-1.478 5.493-2.685 8.022-1.09 1.788 2.128-.293 1.839-1.247.216-2.265.356-4.548.846-6.775m14.921 1.325h-3.3c.106 1.181.53 2.395-.122 3.495-.421.83-1.159 4.069-1.978 1.96-.22.675-.05 2.97-.55 4.138-.067 1.298-2.052 3.528-.923 4.439 2.869.088 1.907-3.988 3.213-5.708.58-1.1 1.32-2.066 1.662-3.294zm4.623-52.897c-1.105 3.347-2.9 6.42-4.242 9.658-1.212 4.66-2.005 9.46-3.746 13.956-1.297 1.131-1.36-2.135-1.787-3.107-.156-1.451.458-2.93.613-4.393.778-4.25 1.528-8.507 2.4-12.738-2.039 3.267-2.857 7.148-4.177 10.74-1.215 3.322-1.747 6.987-3.805 9.933-2.31 1.543-2.032-3.091-2.083-4.539.167-1.776-.309-.607-.744.375-.394.446-.825 2.71-1.185 1.417-.708-2.457-.254-5.064.158-7.543-1.195 2.75-1.854 5.777-3.533 8.277-1.52 1.994-1.595-1.913-2.791.425-.977 1.457-3.319 2.443-3.905.163-.141-1.815.175-3.731.207-5.585.045-.938-.71 1.334-1.013 1.794-.764 1.57-1.375 3.258-2.472 4.627-.789.027.667-3.531-.81-1.258-.263 1.87-1.928 2.482-2.016.152-.538-1.445.27-2.951.368-4.425.408-2.27.77-4.549 1.302-6.793L67.01 61.24c.953-.064 3.244-1.051 3.49.421.074 1.223.916 1.376 1.975 1.226 4.318.03 8.686.246 12.938-.648 2.871.891 5.792 1.887 8.748 2.286 1.275-.322 3.044-1.13 4.087-.618-.069 1.04 1.488-.46 2.111-.502l3.847-1.776z" style="display:inline;fill:#33b9d0;stroke:none;stroke-width:1.00013;stroke-dasharray:none"/></g><g style="display:inline;opacity:1"><path d="M41.898 104.41c-2.79-6.866-13.086-.252-16.331-6.941 1.378-6.827 5.56-13.075 6.604-20.307 2.625-6.728.244-13.805 1.403-20.734 1.043-5.776 2.962-11.476 7.354-15.024 1.137-6.984 9.63-7.333 13.36-11.962 2.47-6.212-6.934-11.049-.936-16.982 4.434-6.013 9.412-16.347 18.395-10.556C77.5 6.11 87.343 7.864 88.398 16.146c-2.843 5.864-9.639 9.655-11.527 16.497-3.612 8.038-5.265 16.77-8.308 24.98-3.47 6.299-11.793 9.02-10.648 17.69-1.178 9.847-3.344 19.6-6.098 29.133-3.045 1.322-7.063 2.185-9.92-.035zm73.28 3.912c-4.988-1.8-16.303 3.753-16.19-4.26-.481-10.272-1.272-20.525-1.977-30.783 2.563-6.054 2.538-12.936 6.54-18.37.816-6.362.251-12.872 1.8-19.17 1.335-5.526 2.9-11.274 5.925-16.08 4.51-2.412 9.74-4.813 9.77-10.39 2.162-5.642 8.171-7.448 13.324-5.784 6.371 5.757 9.714 14.13 12.81 21.978 1.806 6.354 5.841 11.879 8.225 17.884-.211 6.36.801 12.597.78 18.906.014 8.507 4.657 16.437 2.993 25.028-.972 6.525 1.37 16.497-8.299 16.384-6.262 1.917-11.97 5.774-18.945 4.439-5.581.219-11.168.382-16.756.218z" style="display:inline;fill:#9a8678;stroke:#000;stroke-width:.5;stroke-dasharray:none;stroke-opacity:1"/></g><g style="display:inline;opacity:1;mix-blend-mode:normal;filter:url(#a)"><path d="M115.465 101.925c-2.515-4.279-5.122-9.676-6.186-14.51 1.688-4.656 3.552-9.523 6.906-13.239 5.453-3.075 12.293-1.094 18.316-1.654 5.928-1.564 9.558 4.11 8.283 9.355.49 4.395-2.422 8.218-7.053 7.97-2.864-1.962-6.69-2.689-8.914 1.017 4.962 5.39-4.492 7.644-8.263 8.879-.8 1.067-1.326 3.033-3.089 2.182M97.576 72.648c1.606-3.769 7.367-7.4 11.58-5.382 6.21 2.22 5.79 8.77 1.36 12.735-3.308 3.921-10.855-1.817-11.7-5.842-.115-1.04-.226-3.222-.667-.5m22.901-4.691c-4.116-2.381-6.94-6.176-10.469-9.276-2.216-1.74-4.156-3.792-6.208-5.717 1.96-3.384.853-8.698 4.659-10.775 2.745-1.478 8.174-.661 9.44-1.05-1.112-5.404 9.187-8.19 12.495-4.81 3.04 3.482-.113 7.866-4.367 6.616 6.369-.066 7.397 5.904 6.486 10.945-1.589 4.37 3.782 10.673 7.206 5.475 4.48-5.15-2.32-10.583-3.99-15.468 3.73 1.83 4.71 6.749 6.93 10.062 2.773 5.775-3.076 12.725-8.74 13.72-4.268-.124-9.739 3.177-13.443.278" style="display:inline;fill:#847363"/><path d="M109.696 23.752c.487-4.338 8.031-5.396 8.82-6.119-.177 3.04 5.32-1.375 7.598.553 5.731.44 6.455 8.687 6.808 12.94-4.063 3.08-9.18 4.658-14.07 5.979-3.018.28-8.453-.412-9.152-3.623q-.001-4.866-.004-9.73M42.315 73.143c-3.041-2.625-4.539-8.05-2.383-11.34 3.03-5.754 9.036.395 13.883-1.097 3.955-.51 10 2.637 3.654 5.274-.679 4.122-5.385 5.365-8.212 4.968-1.702 2.233-4.177 5.292-6.942 2.195m11.481-15.274c-3.054.267-6.031-.128-7.43-3.751-2.46-3.537-4.482-8.547-.72-12.033 2.154-3.158 4.094-6.486 6.386-9.534 2.925-.837 3.8-3.227 2.556-5.933 2.297-1.11 2.736-6.168 6.93-5.5 4.208-.488 10.3 1.507 12.438 5.234-1.058 4.746-7.403 4.517-11.26 5.322-5.953-.646 3.406 3.46 3.86 5.927 4.084 5.615-3.486 9.923-8.099 6.104-1.882-.348-7.76-5.157-4.27-1.232 4.227 2.645 10.177 4.357 12.169 9.211 2.62 3.225-.823 8.59-3.786 4.958-2.47 2.055-5.809 2.575-8.774 1.227m29.361-40.037c-4.53 1.692-9.073 5.25-14.123 3.164-5.494-1.319-10.892-5.09-12.738-10.568-.091-5.221 6.964-.596 7.69-5.786 3.607-.899 7.905 1.237 11.392 2.854l11.939 6.197z" style="display:inline;fill:#847363"/></g><path d="M100.488 27.682c1.899-4.019-1.261.36-1.106 2.17.514-.613.733-1.467 1.106-2.17" style="display:inline;opacity:.384;mix-blend-mode:normal;fill:#feffff;fill-opacity:1;stroke:none;stroke-width:1.00013;stroke-dasharray:none;filter:url(#b)"/><path d="M98.683 29.614c.514-.28-1.16-.449-1.098-.598-.775 1.237-3.376 8.42-1 4.216.682-1.215 1.321-2.46 2.098-3.618" style="display:inline;opacity:.384;mix-blend-mode:normal;fill:#feffff;fill-opacity:1;stroke:none;stroke-width:1.00013;stroke-dasharray:none;filter:url(#b)"/><path d="M76.944 38.794c.834-1.57 2.106-4.878.202-1.492-.933 1.561-3.05 6.325-2.549 6.564.8-1.683 1.563-3.382 2.347-5.072" style="display:inline;opacity:.384;mix-blend-mode:normal;fill:#feffff;fill-opacity:1;stroke:none;stroke-width:1.00013;stroke-dasharray:none;filter:url(#b)"/><path d="M75.422 46.379c.77-1.82 1.02-3.445-.16-.663-.777 1.542-.527 3.025.16.663" style="display:inline;opacity:.384;mix-blend-mode:normal;fill:#feffff;fill-opacity:1;stroke:none;stroke-width:1.00013;stroke-dasharray:none;filter:url(#b)"/><path d="M79.726 68.692c1.895-.388 3.333.64 5.24-.321l7.82.42c2.672-2.364-2.024-.11-3.53-.778-1.338-.103-3.839.549-3.554-1.639-.276-.55-2.283 1.026-3.229 1.3-1.949-.949-3.28-1.815-5.736-.526-2.565.498-.656.466.854.481.711.07 1.348 2.086 2.135 1.063" style="display:inline;opacity:.384;mix-blend-mode:normal;fill:#feffff;fill-opacity:1;stroke:none;stroke-width:1.00013;stroke-dasharray:none;filter:url(#b)"/><path d="M67.067 68.025c1.11-.564 6.86-.527 5.126-1.121-1.367-.485.216-2.086-2.03-1.183-1.954-.057-5.98 1.56-6.84-.447 1.362-2.131 1.312-2.206-.657-.879-1.088.87-3.36 5.649-.891 2.934.649-1.101 2.952-1.078 2.537.546-.232 2.629 1.319-.515 2.755.15" style="display:inline;opacity:.384;mix-blend-mode:normal;fill:#feffff;fill-opacity:1;stroke:none;stroke-width:1.00013;stroke-dasharray:none;filter:url(#b)"/><path d="M74.357 82.2c.946-1.074.604 1.17 1.137-1.472.811-2.491.375-3.32-.867-.591-2.063.954-2.141 3.067-2.087 5.332.03.664 1.278-3.232 1.817-3.268" style="display:inline;opacity:.384;mix-blend-mode:normal;fill:#feffff;fill-opacity:1;stroke:none;stroke-width:1.00013;stroke-dasharray:none;filter:url(#b)"/><path d="M61.86 113.17c4.883 1.74 4.185-5.678-.299-4.156-1.241-2.432-5.753-3.11-3.389-5.816 1.097-4.553-5.562-6.301-7.487-2.346-1.661 2.373-.322 5.727-3.354 6.356.406 3.759 5.3.296 7.265 3.297 2.17 1.383 4.522 3.166 7.263 2.665" style="display:inline;opacity:.384;mix-blend-mode:normal;fill:#feffff;fill-opacity:1;stroke:none;stroke-width:1.00013;stroke-dasharray:none;filter:url(#b)" transform="matrix(1.20966 0 0 .53004 -8.448 53.62)"/><path d="M93.105 116.65c3.225-1.708 6.5-3.363 10.058-3.721 3.367 1.229 9.483-.06 7.45-4.792-1.675-2.359-5.105-2.366-5.159-5.608-2.255-3.633-7.959-.97-5.425 2.936.493 5.217-6.507 2.231-9.095 5.267-2.825 1.582-4.839-.17-4.91-2.916-1.28-3.525-4.894-4.556-7.49-1.657-3.758.262-7.465 7.04-1.735 7.286 2.821 3.05 7.387.18 9.872 2.176 1.8 1.476 4.266 1.51 6.434 1.03" style="display:inline;opacity:.384;mix-blend-mode:normal;fill:#feffff;fill-opacity:1;stroke:none;stroke-width:1.00013;stroke-dasharray:none;filter:url(#b)" transform="matrix(1.00237 0 0 .53004 .453 53.62)"/><g style="display:inline;opacity:.799;mix-blend-mode:overlay;filter:url(#c)"><path d="M95.588 41.97c1.93-6.386 4.21-12.678 7.29-18.602-.675-.836-4.267 6.748-4.694 5.566 1.027-1.747 3.004-7.023.551-2.708-1.74 3.287-3.436 6.877-3.719 10.587.934-1.635 2.938-6.656 3.674-6.2-1.512 5.502-3.72 10.922-4.878 16.455.743-1.632 1.2-3.4 1.776-5.099m-20.272.971c1.275-3.474 3.373-6.677 4.595-10.106-1.254 1.378-2.38 3.184-.916.274.606-1.743 4.235-7.304 2.895-6.436-3.764 6.29-6.675 13.167-8.663 20.218.29 1.338 1.589-3.206 2.089-3.95m.294 3.527c.569-1.39 2.76-6.922.377-2.793-.777 1.356-2.438 6.366-1.796 6.316.52-1.155.962-2.342 1.418-3.523M81.98 73.72c1.518-2.688 4.55-5.23 7.804-4.55 1.786 1.42.925 5.637 3.104 2.094 1.956-.195-.35 6.237 1.917 2.301 3.17 1.326 1.923-5.191 3.828-6.148-2.882 1.856-3.534-.54-.988-1.9-2.804.042-4.985 2.349-7.875 2.055-1.166.35-3.767-.044-3.045-1.68.82-2.081-2.064.097-3.07.117-2.763 1.83-3.235-2.525-5.995-.633-2.972-.062-5.274-.746-8.634-.03-3.678-.305 1.1-4.545-2.707-3.343-4.794.243-7.248 5.362-7.206 9.641-.187 1.503 4.093-7.428 4.897-2.42-.262 1.491-2.445 5.489.08 2.442 1.107-1.88 7.202-5.687 5.269-.828 1.196-1.834 3.61-2.03 3.896-.211 1.943-2.54 4.873-1.91 6.74-1.808 4.489-2.218-.41 7.745 1.885 5.092zM53.444 85.055c-1.02-1.429-.543 2.403 0 0" style="display:inline;opacity:1;mix-blend-mode:normal;fill:#fff;fill-opacity:1;stroke:none;stroke-width:1.00013;stroke-dasharray:none"/><path d="M73.141 85.003c.504-1.827 2.667-5.293 1.541-1.224.242 1.803 1.3-4.458 1.55-5.53 1.26-5.73-3.469 6.849-2.493 1.059.263-1.5 1.848-8.045.282-3.464-.738 3.319-2.185 8.32-1.599 10.946l.378-.886zm22.572 3.709c-.143-3.463-4.253 2.478-.112.97zm-5.227.618c-.814-1.736-.238 1.622 0 0m-26.759.378c1.873-4.669-4.517-1.656-1.253.776.551.25 1.099-.303 1.253-.776m2.706 1.27c-.883-3.095-1.93 2.872 0 0m48.747 4.152c-2.087-1.536-.893 1.413 0 0m-73.73.154c-1.385-1.699-2.42 2.757-.128.455z" style="display:inline;opacity:1;mix-blend-mode:normal;fill:#fff;fill-opacity:1;stroke:none;stroke-width:1.00013;stroke-dasharray:none"/><path d="M89.219 118.53c3.027-.094 6.29.17 8.582-1.06 2.856 1.336 6.55-.38 9.117.017 2.433-1.224 6.212-1.45 8.696-3.084 2.92-.082 5.145-3.498.587-2.668-4.38.222-1.374-4.974-4.484-5.116 1.113-2.543-1.135-6.255-6.186-5.99-4.085-1.085-4.676 2.457-5.125 3.893-1.473-.09.173-3.673-1.414-1.403-.014 1.954-2.802 5.44-5.12 2.217-4.04.155.88-4.405-4.528-4.226-4.644-.4-4.89 4.234-8.974 2.97-2.493-.342-3.238-.493-2.77-2.24-2.488-2.447-8.165-.788-8.593 1.58-1.892.534-4.627 2.967-6.17.562-.668-1.925-4.921-1.052-4.583-3.388-.735-2.254-5.653.413-5.246-1.744-3.404.6-6.008 2.488-6.432 4.7 1.844 2.032-3.374 2.833-1.77 5.011-2.595.97-6.15 4.162-.533 4.358 5.48 1.028 10.866 1.58 15.926 3.257 2.069 1.07 5.326.113 6.966 1.727 3.71.244 7.965.148 10.472-.74 3.18 1.845 7.587 1.683 11.582 1.367" style="display:inline;opacity:1;mix-blend-mode:normal;fill:#fff;fill-opacity:1;stroke:none;stroke-width:.8032;stroke-dasharray:none"/></g></svg>