<svg xmlns="http://www.w3.org/2000/svg" width="580" height="580" viewBox="0 0 580 580"><path fill="param(fill)" fill-opacity="param(fill-opacity)" stroke="param(outline)" stroke-opacity="param(outline-opacity)" stroke-width="param(outline-width)" d="M78.411 478.928c8.833-2.73 23.02-12.547 36.387-13.567 13.244-1.125 27.864 8.771 42.819 7.124 14.81-1.983 30.344-15.606 45.508-17.448 14.754-1.98 29.014 7.713 43.958 6.544 15.159-1.305 29.591-12.746 45.835-13.978 16.013-1.27 33.309 8.076 49.633 6.484 16.014-1.862 30.128-14.877 46.84-16.567 16.774-1.634 36.31 7.978 52.781 6.728 16.215-1.525 31.996-13.75 43.837-15.277 11.55-1.621 18.621 5.308 25.746 6.181 7.008.824 12.267.566 16.205-1.051l-2.931-31.164c-3.938 1.619-9.197 1.874-16.205 1.051-7.131-.933-14.19-7.742-25.752-6.241-11.842 1.529-27.622 13.751-43.836 15.275-16.478 1.196-35.996-8.243-52.776-6.665-12.001 1.215-22.662 8.267-33.649 12.836l-16.727-39.608c33.99-13.565 61.652-38.611 78.613-71.45a154 154 0 0 0 10.897-27.142l36.449 9.268q.115.03.231.029a.94.94 0 0 0 .698-.312l22.125-24.627a.939.939 0 0 0-.592-1.561l-54.005-6.084c2.815-21.79.849-44.116-6.024-65.671-7.063-22.154-18.818-41.97-34.489-58.463l26.176-26.133a.94.94 0 0 0 .233-.943l-9.835-31.611a.939.939 0 0 0-1.644-.289l-32.668 43.024a155 155 0 0 0-3.828-2.869c-26.144-18.801-56.899-28.739-88.941-28.739-11.257 0-22.47 1.266-33.48 3.758l-9.828-38.299-38.821-9.162 22.793 55.773c-42.514 17.945-73.234 53.654-86.159 95.508l-37.93-10.853a.95.95 0 0 0-.938.255L72.27 206.951a.941.941 0 0 0 .546 1.578l55.977 7.996c-3.232 22.129-1.625 45.3 5.613 68.001 6.772 21.239 17.853 40.334 32.564 56.41l-28.763 27.794a.94.94 0 0 0-.249.939l9.318 31.768a.938.938 0 0 0 1.639.316l35.184-44.802a155 155 0 0 0 6.361 4.86c26.145 18.801 56.899 28.738 88.941 28.738 11.493 0 22.939-1.316 34.171-3.914l9.42 35.02c-11.128-2.205-22.353-6.059-33.009-5.215-16.255 1.114-30.682 12.616-45.84 13.92-14.949 1.111-29.188-8.349-43.953-6.486-15.148 2.021-30.709 15.347-45.508 17.45-14.955 1.645-29.577-8.251-42.819-7.127-13.366 1.021-27.554 10.837-36.387 13.566-8.849 2.556-14.52 3.267-16.786 2.113l2.931 31.166c2.271 1.148 7.941.439 16.79-2.114zm331.845-173.09c-16.417 31.788-43.204 56.024-76.117 69.137l-45.314-107.308c8.649-2.761 15.238-9.005 18.716-16.691l113.204 28.782a149 149 0 0 1-10.489 26.08zm9.458-112.286c6.656 20.873 8.555 42.494 5.816 63.593l-115.798-13.046a30.65 30.65 0 0 0-.897-15.192 31 31 0 0 0-4.918-9.406l82.587-82.452c14.81 15.708 26.306 34.848 33.21 56.503zM279.481 91.009c33.452 0 64.745 11.15 89.832 30.476l-70.464 92.801a30.74 30.74 0 0 0-19.398-6.865c-1.074 0-2.145.078-3.211.19L247.248 94.626c10.603-2.389 21.396-3.617 32.233-3.617zm-57.443 11.699 44.042 107.766c-6.024 2.88-10.929 7.612-14.046 13.648q-.727 1.411-1.302 2.869l-111.938-32.029c12.511-40.421 42.187-74.904 83.244-92.254zm-82.865 180.297c-7.001-21.959-8.555-44.371-5.428-65.776l115.186 16.455a30.7 30.7 0 0 0 1.122 13.966 31 31 0 0 0 4.403 8.746l-83.931 81.105c-13.914-15.322-24.739-33.756-31.352-54.496zm140.233 102.542c-34.558 0-66.813-11.9-92.3-32.421l71.976-91.652a30.74 30.74 0 0 0 22.859 7.554l30.333 112.766a146.7 146.7 0 0 1-32.868 3.753zm250.53 69.549c-3.95 1.496-9.203 1.813-16.211.989-7.125-.871-14.196-7.803-25.746-6.183-11.843 1.528-27.623 13.75-43.837 15.274-16.477 1.195-35.996-8.24-52.775-6.663-16.713 1.691-30.827 14.705-46.841 16.565-16.323 1.596-33.619-7.753-49.633-6.485-16.255 1.113-30.682 12.614-45.84 13.922-14.949 1.109-29.188-8.35-43.953-6.485-15.148 2.017-30.709 15.344-45.508 17.45-14.956 1.642-29.577-8.255-42.82-7.128-13.366 1.021-27.554 10.837-36.386 13.566-8.838 2.672-14.531 3.146-16.792 2.054l2.931 31.165c2.261 1.092 7.954.618 16.792-2.054 8.833-2.731 23.02-12.546 36.386-13.566 13.244-1.127 27.864 8.77 42.82 7.128 14.799-2.106 30.36-15.434 45.508-17.451 14.765-1.863 29.003 7.596 43.953 6.486 15.158-1.308 29.584-12.809 45.84-13.922 16.014-1.268 33.31 8.08 49.633 6.485 16.014-1.86 30.128-14.878 46.841-16.565 16.779-1.578 36.298 7.858 52.775 6.663 16.214-1.524 31.995-13.746 43.837-15.274 11.561-1.503 18.621 5.307 25.752 6.24 7.007.824 12.266.568 16.205-1.047z"/></svg>